<?xml version="1.0" encoding="utf-8"?>
<!-- Generator: Adobe Illustrator 23.0.3, SVG Export Plug-In . SVG Version: 6.00 Build 0)  -->
<svg version="1.1" id="Capa_1" xmlns="http://www.w3.org/2000/svg" xmlns:xlink="http://www.w3.org/1999/xlink" x="0px" y="0px"
	 viewBox="0 0 551 771" style="enable-background:new 0 0 551 771;" xml:space="preserve">
<style type="text/css">
	.st0{fill:#FFFFFF;}
	.st1{fill:#8886BB;}
	.st2{fill:#34408C;}
	.st3{fill:#00979F;}
	.st4{fill:#DDDDDD;}
</style>
<path class="st0" d="M533,771.4H18c-9.9,0-18-8.1-18-18V18.6c0-9.9,8.1-18,18-18h515c9.9,0,18,8.1,18,18v734.7
	C551,763.3,542.9,771.4,533,771.4z"/>
<rect x="40" y="64" class="st1" width="471" height="24"/>
<rect x="40" y="145" class="st1" width="286.5" height="21"/>
<rect x="40" y="226" class="st1" width="286.5" height="21"/>
<rect x="40" y="307" class="st1" width="471" height="21"/>
<rect x="40" y="388" class="st1" width="471" height="21"/>
<rect x="40" y="469" class="st1" width="471" height="21"/>
<rect x="40" y="550" class="st1" width="471" height="21"/>
<rect x="40" y="631" class="st1" width="471" height="21"/>
<rect x="40" y="712" class="st1" width="235.5" height="21"/>
<path class="st2" d="M533,1H18C8.1,1,0,9.1,0,19v5h551v-5C551,9.1,542.9,1,533,1z"/>
<circle class="st3" cx="453.5" cy="190.5" r="57.5"/>
</svg>
