<svg xmlns="http://www.w3.org/2000/svg" xmlns:xlink="http://www.w3.org/1999/xlink" width="70" height="70" viewBox="0 0 70 70">
  <defs>
    <filter id="Trazado_197" x="8.555" y="1.037" width="53.744" height="73.926" filterUnits="userSpaceOnUse">
      <feOffset dy="3" input="SourceAlpha"/>
      <feGaussianBlur stdDeviation="3" result="blur"/>
      <feFlood flood-opacity="0.161"/>
      <feComposite operator="in" in2="blur"/>
      <feComposite in="SourceGraphic"/>
    </filter>
    <clipPath id="clip-Mesa_de_trabajo_3">
      <rect width="70" height="70"/>
    </clipPath>
  </defs>
  <g id="Mesa_de_trabajo_3" data-name="Mesa de trabajo – 3" clip-path="url(#clip-Mesa_de_trabajo_3)">
    <g id="Grupo_83" data-name="Grupo 83" transform="translate(17.555 7.037)">
      <g id="Grupo_36" data-name="Grupo 36" transform="translate(0 0)">
        <g transform="matrix(1, 0, 0, 1, -17.55, -7.04)" filter="url(#Trazado_197)">
          <path id="Trazado_197-2" data-name="Trazado 197" d="M379.181,38.558h-31.69V38.5h-1.314c-.753,0-1.37.96-1.37,2.134V92.244c0,1.173.616,2.133,1.37,2.133h1.314v.054h31.69c.753,0,1.37-.96,1.37-2.133V40.691C380.551,39.518,379.935,38.558,379.181,38.558Z" transform="translate(-327.25 -31.47)" fill="#fff"/>
        </g>
        <g id="Grupo_35" data-name="Grupo 35" transform="translate(3.704 6.977)">
          <g id="Grupo_34" data-name="Grupo 34">
            <rect id="Rectángulo_487" data-name="Rectángulo 487" width="12.885" height="17.267" rx="1.417" transform="translate(0.652 0.606)" fill="#fff"/>
            <g id="Grupo_33" data-name="Grupo 33" transform="translate(2.855 2.551)">
              <path id="Trazado_198" data-name="Trazado 198" d="M362.938,73.619l1.755,2.1h1.795l1.081-1.462.878-4.143-.439-1.8-2.315-.634-2.559.292-.975,1.95Z" transform="translate(-361.28 -64.699)" fill="#eac994"/>
              <path id="Trazado_199" data-name="Trazado 199" d="M367.666,62.294l.39,3.7-1.115,1.731.335-1.584-.439-1.8-2.315-.634L361.963,64l-.975,1.95.439,2.086-1.317-2.871.877-3.456,4.33-.975Z" transform="translate(-360.111 -60.734)" fill="#1d3240"/>
              <path id="Trazado_200" data-name="Trazado 200" d="M376.391,76.089v3.193l.926,3.193-1.852-2.437.439-3.228Z" transform="translate(-368.884 -69.508)" fill="#1d3240"/>
              <path id="Trazado_201" data-name="Trazado 201" d="M366.464,84.518v1.359l.884,1.414h1.219l.682-1.386.064-1.057-.365.494h-1.795Z" transform="translate(-363.741 -74.324)" fill="#d89b54"/>
              <path id="Trazado_202" data-name="Trazado 202" d="M366.821,90.766l-.331.095-.845,1.82Z" transform="translate(-363.273 -77.895)" fill="#e3e1ea"/>
              <path id="Trazado_203" data-name="Trazado 203" d="M371.479,90.766l.408.095.991,1.82Z" transform="translate(-366.607 -77.895)" fill="#e3e1ea"/>
            </g>
            <path id="Trazado_204" data-name="Trazado 204" d="M365.456,54.783h-9.869a2.144,2.144,0,0,0-2.137,2.137V71.171a2.143,2.143,0,0,0,2.137,2.137h9.869a2.143,2.143,0,0,0,2.137-2.137V56.92A2.143,2.143,0,0,0,365.456,54.783Zm1.532,16.388a1.533,1.533,0,0,1-1.532,1.531h-9.869a1.533,1.533,0,0,1-1.531-1.531V56.92a1.533,1.533,0,0,1,1.531-1.531h9.869a1.533,1.533,0,0,1,1.532,1.531Z" transform="translate(-353.45 -54.783)" fill="#8886bb"/>
          </g>
        </g>
        <path id="Trazado_205" data-name="Trazado 205" d="M380.551,43.093V41.162c0-1.107-.614-2.013-1.365-2.013H346.172c-.751,0-1.365.906-1.365,2.013v1.931Z" transform="translate(-344.807 -38.873)" fill="#34408c"/>
        <rect id="Rectángulo_488" data-name="Rectángulo 488" width="27.34" height="2.752" rx="0.58" transform="translate(3.572 39.168)" fill="#00979f"/>
        <rect id="Rectángulo_489" data-name="Rectángulo 489" width="27.34" height="0.81" rx="0.171" transform="translate(3.704 30.638)" fill="#8886bb"/>
        <rect id="Rectángulo_490" data-name="Rectángulo 490" width="15.65" height="0.81" rx="0.171" transform="translate(19.347 35.165) rotate(180)" fill="#8886bb"/>
        <rect id="Rectángulo_491" data-name="Rectángulo 491" width="22.129" height="0.81" rx="0.171" transform="translate(25.569 46.734) rotate(180)" fill="#8886bb"/>
        <rect id="Rectángulo_492" data-name="Rectángulo 492" width="5.485" height="0.81" rx="0.171" transform="translate(9.165 51.148) rotate(-180)" fill="#8886bb"/>
        <rect id="Rectángulo_493" data-name="Rectángulo 493" width="5.485" height="0.81" rx="0.171" transform="translate(15.527 51.148) rotate(-180)" fill="#8886bb"/>
        <rect id="Rectángulo_494" data-name="Rectángulo 494" width="5.485" height="0.81" rx="0.171" transform="translate(22.089 51.148) rotate(-180)" fill="#8886bb"/>
        <rect id="Rectángulo_495" data-name="Rectángulo 495" width="5.485" height="0.81" rx="0.171" transform="translate(28.551 51.148) rotate(-180)" fill="#8886bb"/>
        <rect id="Rectángulo_498" data-name="Rectángulo 498" width="13.265" height="1.405" rx="0.296" transform="translate(33.341 22.216) rotate(-180)" fill="#8886bb"/>
      </g>
      <g id="Grupo_46" data-name="Grupo 46" transform="translate(22.639 6.184)">
        <path id="Trazado_210" data-name="Trazado 210" d="M408.334,53.5l-.145.579a.289.289,0,0,1-.28.219h-.485a1.533,1.533,0,0,1,.532,1.157v1.157a1.528,1.528,0,0,1-.385,1.011v1.3a.772.772,0,0,1-.772.771h-.771a.771.771,0,0,1-.771-.771v-.772h-6.171v.772a.771.771,0,0,1-.771.771h-.772a.771.771,0,0,1-.771-.771v-1.3a1.531,1.531,0,0,1-.386-1.011V55.452a1.536,1.536,0,0,1,.532-1.157h-.483a.29.29,0,0,1-.281-.219l-.145-.579a.289.289,0,0,1,.28-.359h1.444l.4-1a2.687,2.687,0,0,1,2.507-1.7H403.7a2.687,2.687,0,0,1,2.506,1.7l.4,1h1.444A.289.289,0,0,1,408.334,53.5Zm-8.863,2.723a1.484,1.484,0,0,0-1.156-1.154.769.769,0,1,0,0,1.538C398.777,56.6,399.471,56.682,399.471,56.22Zm-.385-2.311h6.171l-.481-1.2a1.157,1.157,0,0,0-1.074-.727h-3.062a1.158,1.158,0,0,0-1.075.727Zm7.714,1.927a.728.728,0,0,0-.771-.77,1.485,1.485,0,0,0-1.157,1.154c0,.462.695.384,1.157.384A.727.727,0,0,0,406.8,55.836Z" transform="translate(-396 -50.438)" fill="#8886bb"/>
      </g>
    </g>
  </g>
</svg>
