<svg xmlns="http://www.w3.org/2000/svg" width="76" height="76" viewBox="0 0 76 76">
  <g id="Grupo_88" data-name="Grupo 88" transform="translate(389 504)">
    <path id="Rectángulo_612" data-name="Rectángulo 612" d="M0,0H66A10,10,0,0,1,76,10V76a0,0,0,0,1,0,0H70A70,70,0,0,1,0,6V0A0,0,0,0,1,0,0Z" transform="translate(-389 -504)" fill="#ffe200"/>
    <path id="Trazado_227" data-name="Trazado 227" d="M29.59-.311,23.748-6.152a1.405,1.405,0,0,0-1-.41H21.8a12.128,12.128,0,0,0,2.578-7.5A12.186,12.186,0,0,0,12.187-26.25,12.186,12.186,0,0,0,0-14.062,12.186,12.186,0,0,0,12.187-1.875a12.128,12.128,0,0,0,7.5-2.578V-3.5a1.405,1.405,0,0,0,.41,1L25.939,3.34a1.4,1.4,0,0,0,1.986,0l1.658-1.658A1.413,1.413,0,0,0,29.59-.311Zm-17.4-6.252a7.5,7.5,0,0,1-7.5-7.5,7.5,7.5,0,0,1,7.5-7.5,7.5,7.5,0,0,1,7.5,7.5A7.5,7.5,0,0,1,12.187-6.562Z" transform="translate(-360 -463)" fill="#fff" opacity="0.8"/>
  </g>
</svg>
