<svg xmlns="http://www.w3.org/2000/svg" width="76" height="76" viewBox="0 0 76 76">
  <g id="Grupo_90" data-name="Grupo 90" transform="translate(134 504)">
    <path id="Rectángulo_614" data-name="Rectángulo 614" d="M0,0H66A10,10,0,0,1,76,10V76a0,0,0,0,1,0,0H70A70,70,0,0,1,0,6V0A0,0,0,0,1,0,0Z" transform="translate(-134 -504)" fill="#0093ff"/>
    <path id="Trazado_229" data-name="Trazado 229" d="M25.547,1.875H24.375V-24.844a1.406,1.406,0,0,0-1.406-1.406H3.281a1.406,1.406,0,0,0-1.406,1.406V1.875H.7a.7.7,0,0,0-.7.7V3.75H26.25V2.578A.7.7,0,0,0,25.547,1.875ZM7.5-21.8a.7.7,0,0,1,.7-.7h2.344a.7.7,0,0,1,.7.7v2.344a.7.7,0,0,1-.7.7H8.2a.7.7,0,0,1-.7-.7Zm0,5.625a.7.7,0,0,1,.7-.7h2.344a.7.7,0,0,1,.7.7v2.344a.7.7,0,0,1-.7.7H8.2a.7.7,0,0,1-.7-.7ZM10.547-7.5H8.2a.7.7,0,0,1-.7-.7v-2.344a.7.7,0,0,1,.7-.7h2.344a.7.7,0,0,1,.7.7V-8.2A.7.7,0,0,1,10.547-7.5ZM15,1.875H11.25V-3.047a.7.7,0,0,1,.7-.7H14.3a.7.7,0,0,1,.7.7ZM18.75-8.2a.7.7,0,0,1-.7.7H15.7a.7.7,0,0,1-.7-.7v-2.344a.7.7,0,0,1,.7-.7h2.344a.7.7,0,0,1,.7.7Zm0-5.625a.7.7,0,0,1-.7.7H15.7a.7.7,0,0,1-.7-.7v-2.344a.7.7,0,0,1,.7-.7h2.344a.7.7,0,0,1,.7.7Zm0-5.625a.7.7,0,0,1-.7.7H15.7a.7.7,0,0,1-.7-.7V-21.8a.7.7,0,0,1,.7-.7h2.344a.7.7,0,0,1,.7.7Z" transform="translate(-103 -463)" fill="#fff" opacity="0.8"/>
  </g>
</svg>
