<svg xmlns="http://www.w3.org/2000/svg" width="76" height="76" viewBox="0 0 76 76">
  <g id="Grupo_89" data-name="Grupo 89" transform="translate(235 504)">
    <path id="Rectángulo_613" data-name="Rectángulo 613" d="M0,0H66A10,10,0,0,1,76,10V76a0,0,0,0,1,0,0H70A70,70,0,0,1,0,6V0A0,0,0,0,1,0,0Z" transform="translate(-235 -504)" fill="#10d39e"/>
    <path id="Trazado_228" data-name="Trazado 228" d="M30.937-24.375H2.812A2.813,2.813,0,0,0,0-21.562V-.937A2.813,2.813,0,0,0,2.812,1.875H30.937A2.813,2.813,0,0,0,33.75-.937V-21.562A2.813,2.813,0,0,0,30.937-24.375ZM10.312-18.75A3.753,3.753,0,0,1,14.062-15a3.753,3.753,0,0,1-3.75,3.75A3.753,3.753,0,0,1,6.562-15,3.753,3.753,0,0,1,10.312-18.75ZM16.875-4.875A1.229,1.229,0,0,1,15.562-3.75H5.063A1.229,1.229,0,0,1,3.75-4.875V-6A3.69,3.69,0,0,1,7.687-9.375H7.98a6.069,6.069,0,0,0,2.332.469,6.047,6.047,0,0,0,2.332-.469h.293A3.69,3.69,0,0,1,16.875-6ZM30-7.969a.47.47,0,0,1-.469.469H21.094a.47.47,0,0,1-.469-.469v-.937a.47.47,0,0,1,.469-.469h8.437A.47.47,0,0,1,30-8.906Zm0-3.75a.47.47,0,0,1-.469.469H21.094a.47.47,0,0,1-.469-.469v-.937a.47.47,0,0,1,.469-.469h8.437a.47.47,0,0,1,.469.469Zm0-3.75a.47.47,0,0,1-.469.469H21.094a.47.47,0,0,1-.469-.469v-.937a.47.47,0,0,1,.469-.469h8.437a.47.47,0,0,1,.469.469Z" transform="translate(-208 -463)" fill="#fff" opacity="0.8"/>
  </g>
</svg>
