<?xml version="1.0" encoding="utf-8"?>
<!-- Generator: Adobe Illustrator 23.0.3, SVG Export Plug-In . SVG Version: 6.00 Build 0)  -->
<svg version="1.1" id="Capa_1" xmlns="http://www.w3.org/2000/svg" xmlns:xlink="http://www.w3.org/1999/xlink" x="0px" y="0px"
	 viewBox="0 0 551 771" style="enable-background:new 0 0 551 771;" xml:space="preserve">
<style type="text/css">
	.st0{fill:#FFFFFF;}
	.st1{fill:#8886BB;}
	.st2{fill:#34408C;}
	.st3{fill:#00979F;}
	.st4{fill:#DDDDDD;}
	.st5{font-family:'FontAwesome5Free-Solid';}
	.st6{font-size:73.1703px;}
</style>
<path class="st0" d="M533.5,771.2h-515c-9.9,0-18-8.1-18-18V18.5c0-9.9,8.1-18,18-18h515c9.9,0,18,8.1,18,18v734.7
	C551.5,763.2,543.4,771.2,533.5,771.2z"/>
<path class="st2" d="M533,0H18C8.1,0,0,8.1,0,18v5h551v-5C551,8.1,542.9,0,533,0z"/>
<rect x="47" y="66" class="st4" width="257" height="220"/>
<rect x="47" y="326" class="st4" width="471" height="183.2"/>
<rect x="344" y="233" class="st4" width="174" height="53"/>
<rect x="68" y="86" class="st1" width="215" height="13"/>
<rect x="68" y="125" class="st1" width="215" height="13"/>
<rect x="362.5" y="252.5" class="st1" width="135.5" height="13"/>
<rect x="344" y="160" class="st4" width="174" height="53"/>
<rect x="362.5" y="179.5" class="st1" width="135.5" height="13"/>
<rect x="68" y="164" class="st1" width="215" height="13"/>
<rect x="68" y="346" class="st3" width="215" height="13"/>
<rect x="68" y="388" class="st1" width="199" height="13"/>
<rect x="68" y="430" class="st1" width="215" height="13"/>
<rect x="68" y="472" class="st1" width="135" height="13"/>
<rect x="311" y="346" class="st1" width="120" height="13"/>
<rect x="311" y="388" class="st1" width="174" height="13"/>
<rect x="311" y="430" class="st1" width="64" height="13"/>
<rect x="311" y="472" class="st1" width="142" height="13"/>
<rect x="47" y="549" class="st4" width="471" height="183.2"/>
<rect x="68" y="569" class="st3" width="215" height="13"/>
<rect x="68" y="611" class="st1" width="215" height="13"/>
<rect x="68" y="653" class="st1" width="215" height="13"/>
<rect x="68" y="695" class="st1" width="215" height="13"/>
<rect x="311" y="569" class="st1" width="149" height="13"/>
<rect x="311" y="611" class="st1" width="131" height="13"/>
<rect x="311" y="653" class="st1" width="115" height="13"/>
<rect x="311" y="695" class="st1" width="159" height="13"/>
<rect x="158" y="203" class="st1" width="125" height="13"/>
<rect x="158" y="242" class="st1" width="125" height="13"/>
<text transform="matrix(1 0 0 1 70.9727 258.7104)" class="st3 st5 st6"></text>
</svg>
