<svg xmlns="http://www.w3.org/2000/svg" width="100.841" height="92.436" viewBox="0 0 100.841 92.436">
  <path id="Sustracción_4" data-name="Sustracción 4" d="M65.6,99.117H19.36A19.293,19.293,0,0,1,2.633,70.1L33.19,17.324a19.3,19.3,0,0,1,33.461,0L72.775,27.9H58.8L28.21,72.19V87.64H65.6V99.116ZM89.185,97.08V87.64h8.962a19.461,19.461,0,0,1-8.96,9.439Zm9.581-11h0V73.469a18.914,18.914,0,0,1,1.076,6.425A19.216,19.216,0,0,1,98.766,86.08ZM66.319,68.792H56.534L77.872,36.7,96.451,68.789l-7.265,0V57.77H66.319V68.791Z" transform="translate(0.5 -7.181)" fill="#26ddd8" stroke="rgba(0,0,0,0)" stroke-width="1"/>
</svg>
