<svg xmlns="http://www.w3.org/2000/svg" width="100.843" height="92.436" viewBox="0 0 100.843 92.436">
  <path id="Sustracción_2" data-name="Sustracción 2" d="M34.725,99.117H19.36A19.293,19.293,0,0,1,2.633,70.1L33.19,17.324a19.3,19.3,0,0,1,33.461,0L72.589,27.58A42.3,42.3,0,0,0,61.71,26.252a45.861,45.861,0,0,0-10.4,1.12,33.085,33.085,0,0,0-8.755,3.36,31.675,31.675,0,0,0-6.979,5.292A29.743,29.743,0,0,0,30.5,42.938L48.836,52.1a11.532,11.532,0,0,1,4.429-4.944,11.754,11.754,0,0,1,6.179-1.751,8,8,0,0,1,5.2,1.493,5.14,5.14,0,0,1,1.8,4.171A9.91,9.91,0,0,1,65.316,55.5a21.614,21.614,0,0,1-4.532,5.459l-26.059,24.1V99.116Zm57.783-4.169v-13.8H68.2l10.3-9.374c4.853-4.374,8.162-8.342,9.836-11.794a25.185,25.185,0,0,0,1.244-3.061L97.208,70.1a19.388,19.388,0,0,1,2.418,6.821,18.957,18.957,0,0,1-.2,6.806,19.61,19.61,0,0,1-6.914,11.222Z" transform="translate(0.5 -7.181)" fill="#6257fa" stroke="rgba(0,0,0,0)" stroke-width="1"/>
</svg>
