<svg xmlns="http://www.w3.org/2000/svg" width="100.841" height="92.436" viewBox="0 0 100.841 92.436">
  <path id="Sustracción_3" data-name="Sustracción 3" d="M80.481,99.117h-4.7c.785-.294,1.56-.62,2.3-.971a25.4,25.4,0,0,0,10.969-9.115,22.314,22.314,0,0,0,3.554-12.1,21.7,21.7,0,0,0-1.12-7.069A19.015,19.015,0,0,0,88.13,63.9a20.284,20.284,0,0,0-5.446-4.57,27.98,27.98,0,0,0-7.377-2.9l8.809-8.945L97.208,70.1a19.292,19.292,0,0,1-16.727,29.02Zm-39.563,0H19.36A19.293,19.293,0,0,1,2.633,70.1L33.19,17.324a19.3,19.3,0,0,1,33.461,0L72.775,27.9H34.931V46.234h25.75L50.071,57.049V71.984H59.65a13.178,13.178,0,0,1,6.412,1.236A4.035,4.035,0,0,1,68.2,76.928a4.525,4.525,0,0,1-2.575,4.119,13.939,13.939,0,0,1-6.8,1.443,38.863,38.863,0,0,1-9.837-1.339,38.331,38.331,0,0,1-9.527-3.914l-8.24,17.922a44.6,44.6,0,0,0,9.695,3.956Z" transform="translate(0.5 -7.181)" fill="#a9a3fb" stroke="rgba(0,0,0,0)" stroke-width="1"/>
</svg>
