<svg xmlns="http://www.w3.org/2000/svg" width="65.963" height="65.964" viewBox="0 0 65.963 65.964">
  <path id="Sustracción_4" data-name="Sustracción 4" d="M65.963,68.039h-.054c-1.183,0-2.379-.033-3.556-.1V55.19H45.833l7-6.37c3.3-2.972,5.546-5.669,6.684-8.014a17.245,17.245,0,0,0,1.715-7.6,13.479,13.479,0,0,0-2.52-8.05,16.156,16.156,0,0,0-7-5.39,26.4,26.4,0,0,0-10.29-1.89A26.2,26.2,0,0,0,28.4,20.925a20.547,20.547,0,0,0-8.19,8.3l12.46,6.23a7.829,7.829,0,0,1,3.01-3.36,7.988,7.988,0,0,1,4.2-1.191,5.436,5.436,0,0,1,3.535,1.015,3.494,3.494,0,0,1,1.225,2.835,6.73,6.73,0,0,1-.77,3.011,14.7,14.7,0,0,1-3.08,3.71L26.352,54.826A66.431,66.431,0,0,1,15.483,44.539,66.149,66.149,0,0,1,7.175,32.024a65.607,65.607,0,0,1-5.308-14.3A66.268,66.268,0,0,1,0,2.075H65.963Z" transform="translate(0 -2.075)" fill="#10d39e"/>
</svg>
