<svg xmlns="http://www.w3.org/2000/svg" width="18" height="17.997" viewBox="0 0 18 17.997">
  <path id="Trazado_557" data-name="Trazado 557" d="M10.406,13.572H7.594a.842.842,0,0,1-.844-.844V6.822H3.667a.7.7,0,0,1-.5-1.2L8.518.273a.681.681,0,0,1,.96,0l5.351,5.351a.7.7,0,0,1-.5,1.2H11.25v5.906A.842.842,0,0,1,10.406,13.572ZM18,13.291v3.938a.842.842,0,0,1-.844.844H.844A.842.842,0,0,1,0,17.229V13.291a.842.842,0,0,1,.844-.844H5.625v.281A1.97,1.97,0,0,0,7.594,14.7h2.813a1.97,1.97,0,0,0,1.969-1.969v-.281h4.781A.842.842,0,0,1,18,13.291Zm-4.359,3.094a.7.7,0,1,0-.7.7A.705.705,0,0,0,13.641,16.385Zm2.25,0a.7.7,0,1,0-.7.7A.705.705,0,0,0,15.891,16.385Z" transform="translate(0 -0.075)" fill="#fff"/>
</svg>
